<?xml version="1.0" encoding="UTF-8"?>
<svg width="32" height="32" viewBox="0 0 32 32" fill="none" xmlns="http://www.w3.org/2000/svg">
  <!-- Golf ball -->
  <circle cx="16" cy="16" r="14" fill="white" stroke="#333" stroke-width="2"/>
  
  <!-- Golf ball dimples -->
  <path d="M10 12a2 2 0 1 1-4 0 2 2 0 0 1 4 0M16 10a2 2 0 1 1-4 0 2 2 0 0 1 4 0M22 12a2 2 0 1 1-4 0 2 2 0 0 1 4 0M26 16a2 2 0 1 1-4 0 2 2 0 0 1 4 0M22 20a2 2 0 1 1-4 0 2 2 0 0 1 4 0M16 22a2 2 0 1 1-4 0 2 2 0 0 1 4 0M10 20a2 2 0 1 1-4 0 2 2 0 0 1 4 0M6 16a2 2 0 1 1-4 0 2 2 0 0 1 4 0" fill="#333"/>
  
  <!-- Golf tee -->
  <path d="M16 30l2-4h-4l2 4z" fill="#e53e3e"/>
</svg>